:SAMPLES-PER-SECOND 30
:FULLY-SPECIFIED
:DEGREES
124
root  -6.83832 40.9022 -0.338806 0.12616 -87.3526 -1.79419
RightUpLeg  8.25869 -3.08574 -1.39111
RightLeg  -2.27306 -26.5212 1.80846
RightFoot  -1.02168 -0.360998 3.92061
RightToes  -3.11842e-008 1.75238e-005 3.56266e-009
Spine  -4.46414 -1.78881 -8.69864
Spine1  5.03095 -3.88211 12.7615
HEad  1.65562 -3.37501 12.3152
LeftShoulder1  0.54226 -1.41743 -2.98741
LeftArm  -66.0553 -62.6394 -20.7733
LeftForeArm  151.357 -82.0814 -97.4262
LeftHand  -0.839156 -4.64841 9.98385
RightShoulder  0.857598 1.7831 8.81552
RightArm  -73.7173 40.8872 16.4119
RightForeArm  176.405 71.4338 152.132
RightHand  -1.54458 6.77567 -14.985
LeftUpLeg  5.37803 3.40609 4.801
LeftLeg  2.54008 12.3613 -0.477596
LeftFoot  -2.31935 0.406992 -4.97779
LeftToes  4.78904e-008 1.4679e-008 1.35657e-009
125
root  -6.84836 40.8317 -0.197625 5.83771 -88.0625 -8.32309
RightUpLeg  9.02696 -2.994 -1.33862
RightLeg  -2.01086 -25.8698 1.46334
RightFoot  -1.53822 -0.342404 3.86701
RightToes  -3.11842e-008 1.75238e-005 3.56266e-009
Spine  -5.94541 -2.0401 -8.65175
Spine1  8.47619 -4.60803 13.4215
HEad  1.00461 -2.5639 12.993
LeftShoulder1  0.754993 -1.89834 -6.14819
LeftArm  -57.6089 -59.544 -27.443
LeftForeArm  -173.461 -79.1116 -133.905
LeftHand  -0.752681 -4.97545 8.70844
RightShoulder  1.23451 3.01887 11.8485
RightArm  -70.0797 38.2886 19.5753
RightForeArm  178.345 67.3222 157.631
RightHand  -1.77083 7.49848 -16.1753
LeftUpLeg  6.37539 3.63465 4.85348
LeftLeg  2.75784 12.8265 -0.476796
LeftFoot  -3.28242 0.331105 -4.42735
LeftToes  4.78904e-008 1.4679e-008 1.35657e-009
126
root  -6.82633 40.7879 -0.0495807 17.0539 -88.9451 -20.1118
RightUpLeg  9.44684 -3.02486 -1.51719
RightLeg  -1.81229 -24.9541 1.21975
RightFoot  -1.90155 -0.323905 3.76512
RightToes  -3.11842e-008 1.75238e-005 3.56266e-009
Spine  -6.1175 -2.0786 -8.20484
Spine1  9.54736 -4.8524 13.4918
HEad  0.969461 -2.06672 12.3584
LeftShoulder1  1.11413 -3.27312 -9.08176
LeftArm  -52.6905 -55.1265 -30.4509
LeftForeArm  -155.694 -74.3541 -150.859
LeftHand  -0.629525 -5.2095 7.20184
RightShoulder  1.66119 4.22909 14.6727
RightArm  -65.5022 35.6563 22.1162
RightForeArm  -179.289 64.2343 160.745
RightHand  -2.00272 8.11702 -17.4272
LeftUpLeg  7.1709 3.57084 4.61067
LeftLeg  2.76962 13.7172 -0.340587
LeftFoot  -3.89578 0.305138 -4.3289
LeftToes  4.78904e-008 1.4679e-008 1.35657e-009
127
root  -6.79682 40.7713 0.0883843 58.6398 -89.525 -61.9902
RightUpLeg  9.53516 -3.15462 -1.8023
RightLeg  -1.51123 -23.9432 1.06496
RightFoot  -2.12863 -0.333888 3.96099
RightToes  -3.11842e-008 1.75238e-005 3.56266e-009
Spine  -7.35166 -2.2961 -7.36366
Spine1  12.0607 -5.18486 12.6935
HEad  -0.176991 -1.33729 12.594
LeftShoulder1  1.23338 -3.40767 -10.5914
LeftArm  -51.071 -52.4624 -30.5167
LeftForeArm  -150.221 -70.8517 -156.907
LeftHand  -0.680676 -5.81931 7.3675
RightShoulder  1.98177 5.08144 16.4531
RightArm  -62.5791 34.3952 23.0982
RightForeArm  -176.966 62.2868 162.45
RightHand  -2.09636 8.02196 -18.3307
LeftUpLeg  7.77751 3.50301 4.34907
LeftLeg  2.39676 14.6046 -0.376943
LeftFoot  -4.15224 0.275442 -3.98658
LeftToes  4.78904e-008 1.4679e-008 1.35657e-009
128
root  -6.76695 40.7768 0.191163 126.623 -89.5582 -130.189
RightUpLeg  9.74545 -3.08893 -1.94165
RightLeg  -1.69196 -23.4616 0.949893
RightFoot  -2.00755 -0.344617 4.05043
RightToes  -3.11842e-008 1.75238e-005 3.56266e-009
Spine  -7.33619 -2.15092 -6.84668
Spine1  12.5129 -5.06912 12.3357
HEad  -1.04387 -1.37928 13.3509
LeftShoulder1  1.30158 -3.63475 -11.0247
LeftArm  -50.7747 -50.8061 -30.5506
LeftForeArm  -150.07 -68.9151 -159.173
LeftHand  -0.704631 -5.17694 8.03893
RightShoulder  1.97278 5.00646 16.5388
RightArm  -60.6523 33.7449 23.825
RightForeArm  -177.178 61.1019 163.25
RightHand  -2.10562 8.24785 -18.1148
LeftUpLeg  8.28266 3.54137 4.18688
LeftLeg  1.91684 15.0929 -0.569192
LeftFoot  -4.09125 0.268482 -3.84088
LeftToes  4.78904e-008 1.4679e-008 1.35657e-009
129
root  -6.74126 40.7933 0.305276 138.732 -89.46 -142.336
RightUpLeg  9.84469 -3.09329 -2.1482
RightLeg  -1.95916 -23.2819 0.964484
RightFoot  -1.71281 -0.367918 4.22691
RightToes  -3.11842e-008 1.75238e-005 3.56266e-009
Spine  -7.46108 -2.29181 -6.36144
Spine1  12.7413 -5.16784 11.8806
HEad  -2.17619 -0.919758 12.4272
LeftShoulder1  1.25043 -3.37845 -10.9497
LeftArm  -51.8685 -50.44 -29.882
LeftForeArm  -150.361 -68.5022 -159.564
LeftHand  -0.737087 -4.60845 8.84605
RightShoulder  1.9666 5.107 16.1605
RightArm  -59.699 34.0795 23.5189
RightForeArm  -178.889 61.0319 163.138
RightHand  -2.10728 8.23138 -18.1513
LeftUpLeg  8.57992 3.5311 4.015
LeftLeg  1.34551 15.2468 -0.850928
LeftFoot  -3.91187 0.257366 -3.59986
LeftToes  4.78904e-008 1.4679e-008 1.35657e-009
